<svg width="75" height="91" viewBox="0 0 75 91" fill="none" xmlns="http://www.w3.org/2000/svg">
<g clip-path="url(#clip0_139_36)">
<path d="M72.8789 35.3908H66.8239C66.4389 19.5861 53.4405 6.89017 37.4681 6.89017C21.4956 6.89017 8.49695 19.5861 8.1122 35.3908H2.10339C2.46497 16.3906 18.2003 0.865039 37.494 0.865039C46.7646 0.849683 55.67 4.46076 62.2895 10.9195C68.9088 17.3782 72.7122 26.1671 72.8789 35.3908Z" fill="#18484C"/>
<path d="M35.0117 65.0431V71.2234C16.9635 69.9824 2.64147 55.2664 2.12823 37.1183H8.2086C8.54146 46.9074 13.9063 55.8265 21.9492 60.8186C21.4671 59.3424 21.125 57.6899 21.125 56.0617V16.6799H27.199V41.1478H33.273V47.1952H27.199V56.0619C27.199 59.785 29.5533 63.0004 32.7288 64.4858C33.4469 64.815 34.222 65.0043 35.0117 65.0431Z" fill="#96CA4C"/>
<path d="M72.8954 36.8316C72.6322 50.0223 65.087 61.4338 54.0991 67.258V57.2712C54.0991 56.9834 54.079 56.73 54.079 56.4449C54.079 51.3121 49.8205 47.195 44.665 47.195H35.005V41.1499H42.9725C48.128 41.1499 52.3229 37.0677 52.3229 31.9379C52.3229 26.808 48.128 22.7256 42.9725 22.7256H28.9296V16.6799H42.9725C51.4897 16.6799 58.4216 23.4912 58.4216 31.9694C58.4216 36.6502 56.3066 40.7871 52.9799 43.5997C56.5585 45.8742 59.3069 48.9225 59.5959 55.2561C64.8037 49.4984 66.8287 41.7256 66.8287 36.8316H72.8954Z" fill="#96CA4C"/>
<path d="M5.70738 79.2112H3.24797C3.20884 79.2112 3.17078 79.1985 3.13953 79.1751C3.10827 79.1516 3.08554 79.1188 3.07474 79.0813L2.2932 76.3551C2.28557 76.3284 2.28426 76.3004 2.28938 76.2732C2.29449 76.2461 2.30589 76.2204 2.32267 76.1983C2.33945 76.1762 2.36115 76.1583 2.38608 76.1459C2.41101 76.1334 2.43847 76.127 2.46631 76.127H11.8599C11.8994 76.127 11.9377 76.1399 11.9691 76.1636C12.0005 76.1875 12.0231 76.2208 12.0336 76.2587L12.7882 78.9847C12.7956 79.0114 12.7967 79.0392 12.7915 79.0663C12.7862 79.0935 12.7748 79.119 12.758 79.141C12.7412 79.1629 12.7195 79.1806 12.6947 79.193C12.6698 79.2052 12.6425 79.2114 12.6147 79.2114H9.60519C9.55742 79.2114 9.5116 79.2305 9.47784 79.264C9.44406 79.2976 9.42507 79.3431 9.42507 79.3907V89.4984C9.42505 89.546 9.40609 89.5916 9.37235 89.6251C9.33861 89.6587 9.29287 89.6775 9.24514 89.6778H6.06767C6.04403 89.6778 6.02063 89.6729 5.9988 89.664C5.97695 89.655 5.95711 89.6419 5.94041 89.6251C5.92369 89.6086 5.91044 89.5888 5.9014 89.567C5.89238 89.5453 5.88773 89.5219 5.88775 89.4984V79.3905C5.88773 79.3429 5.86875 79.2974 5.83498 79.2638C5.8012 79.2303 5.75513 79.2112 5.70738 79.2112Z" fill="#333333"/>
<path d="M20.4687 87.2732H14.9112C14.8797 87.2732 14.8488 87.2813 14.8216 87.2969C14.7943 87.3125 14.7716 87.3348 14.7557 87.362L13.4468 89.5909C13.4309 89.618 13.4082 89.6403 13.3809 89.6559C13.3536 89.6713 13.3227 89.6796 13.2913 89.6796H10.0565C10.025 89.6796 9.99392 89.6713 9.96657 89.6557C9.93921 89.6398 9.9165 89.6173 9.90068 89.5902C9.88487 89.5631 9.87652 89.5322 9.87647 89.5007C9.87643 89.4692 9.88468 89.4384 9.90041 89.4111L17.5388 76.2079C17.5546 76.1806 17.5773 76.1578 17.6047 76.1422C17.6321 76.1263 17.6632 76.118 17.6948 76.118C17.7264 76.118 17.7575 76.1263 17.7849 76.1422C17.8123 76.1578 17.835 76.1806 17.8508 76.2079L25.4796 89.4115C25.4954 89.4387 25.5037 89.4697 25.5034 89.501C25.5034 89.5325 25.4951 89.5633 25.4794 89.5904C25.4634 89.6178 25.4408 89.6403 25.4135 89.6559C25.386 89.6716 25.355 89.6798 25.3235 89.6798H22.0883C22.0569 89.6798 22.026 89.6718 21.9987 89.6562C21.9715 89.6405 21.9488 89.6182 21.9329 89.5913L20.624 87.362C20.6081 87.3348 20.5854 87.3125 20.5581 87.2969C20.5309 87.2815 20.5002 87.2732 20.4687 87.2732ZM18.9498 84.5015L17.8499 82.6282C17.834 82.6013 17.8114 82.5788 17.7841 82.5634C17.7569 82.5478 17.7261 82.5395 17.6947 82.5395C17.6633 82.5395 17.6325 82.5475 17.6052 82.5632C17.578 82.5786 17.5552 82.6009 17.5393 82.6278L16.4315 84.501C16.4154 84.5282 16.4068 84.5592 16.4066 84.5907C16.4064 84.6224 16.4146 84.6535 16.4304 84.6808C16.4461 84.7082 16.4688 84.7309 16.4963 84.7468C16.5237 84.7627 16.5549 84.7709 16.5866 84.7709H18.7944C18.8261 84.7709 18.8573 84.7627 18.8847 84.7468C18.9121 84.7312 18.9348 84.7084 18.9506 84.681C18.9664 84.6537 18.9746 84.6226 18.9744 84.5912C18.9743 84.5597 18.9658 84.5286 18.9498 84.5015Z" fill="#333333"/>
<path d="M34.2826 89.6775H26.3006C26.2527 89.6775 26.2069 89.6587 26.1731 89.6251C26.1394 89.5916 26.1204 89.5458 26.1204 89.4984V76.3148C26.1204 76.2673 26.1394 76.2217 26.1731 76.1882C26.2067 76.1546 26.2525 76.1357 26.3001 76.1357L29.4777 76.127C29.5015 76.127 29.5249 76.1316 29.5469 76.1406C29.5688 76.1495 29.5887 76.1629 29.6054 76.1794C29.6222 76.196 29.6354 76.2158 29.6444 76.2376C29.6537 76.2594 29.6583 76.2827 29.6583 76.3063V86.4042C29.6583 86.4518 29.6773 86.4973 29.711 86.5311C29.7448 86.5646 29.7906 86.5835 29.8385 86.5835H35.1186C35.1466 86.5835 35.1743 86.5899 35.1995 86.6026C35.2245 86.6152 35.2465 86.6334 35.2631 86.6559C35.2798 86.6785 35.2911 86.7044 35.296 86.732C35.3006 86.7596 35.299 86.7879 35.2909 86.8148L34.4549 89.5504C34.4436 89.5872 34.4207 89.6194 34.3897 89.6424C34.3587 89.6651 34.3212 89.6775 34.2826 89.6775Z" fill="#333333"/>
<path d="M36.301 89.4702V76.3063C36.301 76.2587 36.3199 76.2132 36.3537 76.1797C36.3875 76.1459 36.4332 76.127 36.4811 76.127H40.3164C41.4553 76.127 42.4619 76.267 43.3361 76.5473C44.1963 76.8211 44.8706 77.2699 45.3593 77.8938C45.84 78.5178 46.0805 79.3231 46.0805 80.3099C46.0766 81.0497 45.8578 81.7725 45.4506 82.3914C45.1037 82.9611 44.5864 83.4085 43.9711 83.6708C43.947 83.6805 43.9251 83.6952 43.9072 83.7138C43.8892 83.7327 43.8758 83.7552 43.8672 83.7796C43.8589 83.8042 43.8559 83.8302 43.8587 83.8559C43.8612 83.8819 43.8695 83.9067 43.8827 83.929L47.1878 89.3973C47.2042 89.4244 47.213 89.4555 47.2134 89.4872C47.2139 89.5189 47.2058 89.5502 47.1901 89.5778C47.1746 89.6054 47.1517 89.6283 47.1242 89.6444C47.0966 89.6603 47.0654 89.6688 47.0335 89.6688H43.3206C43.2882 89.6688 43.2565 89.6601 43.2288 89.6437C43.201 89.6274 43.1781 89.6037 43.1626 89.5757L39.8796 83.5947H39.8389V89.4702C39.8389 89.5178 39.8199 89.5633 39.7859 89.5968C39.7521 89.6304 39.7064 89.6495 39.6587 89.6495H36.4809C36.4332 89.6495 36.3875 89.6304 36.3537 89.5968C36.3199 89.5633 36.3012 89.5178 36.301 89.4702ZM39.8389 82.6098C39.8389 82.634 39.8439 82.6577 39.8532 82.6797C39.8627 82.7018 39.8766 82.7218 39.8937 82.7386C39.911 82.7554 39.9314 82.7687 39.9538 82.7774C39.9762 82.7864 40 82.7908 40.0243 82.7903C40.5386 82.7777 40.9715 82.7117 41.323 82.5921C41.6865 82.4825 42.0043 82.2579 42.2281 81.9523C42.4379 81.6594 42.5429 81.2805 42.5433 80.8159C42.5433 80.1156 42.3195 79.6381 41.872 79.3834C41.4495 79.1466 40.8335 79.0199 40.0239 79.0031C39.9998 79.0029 39.9758 79.0072 39.9536 79.0162C39.9311 79.0252 39.9108 79.0383 39.8937 79.0551C39.8766 79.0718 39.8629 79.0918 39.8534 79.1139C39.8442 79.136 39.8393 79.1594 39.8391 79.1836L39.8389 82.6098Z" fill="#333333"/>
<path d="M57.72 77.0837C58.7486 77.669 59.6043 78.5134 60.2011 79.5324C60.8098 80.5596 61.1268 81.7319 61.1192 82.9244C61.1294 84.1144 60.8119 85.2843 60.2011 86.3074C59.6001 87.3298 58.7399 88.177 57.7062 88.7644C56.6725 89.3516 55.5019 89.6585 54.3116 89.6539C53.1205 89.6571 51.9494 89.3497 50.9146 88.7625C49.8797 88.1754 49.0174 87.3291 48.4134 86.3074C47.8026 85.2843 47.4851 84.1141 47.4955 82.9241C47.4877 81.7316 47.805 80.5593 48.4136 79.5321C49.0156 78.5144 49.8737 77.6701 50.9037 77.0834C51.9423 76.4949 53.1168 76.1854 54.3119 76.1854C55.507 76.1854 56.6815 76.4951 57.72 77.0837ZM52.485 79.659C51.9318 80.0092 51.4749 80.4913 51.156 81.0612C50.8369 81.6314 50.666 82.2717 50.6581 82.9241C50.6588 83.5738 50.8313 84.2118 51.1581 84.7742C51.4726 85.3526 51.9291 85.8425 52.485 86.198C53.028 86.5472 53.6607 86.733 54.3072 86.733C54.9538 86.733 55.5865 86.5472 56.1295 86.198C56.6866 85.8412 57.1458 85.3517 57.4657 84.7742C57.7871 84.21 57.9561 83.5725 57.9561 82.9239C57.9561 82.2753 57.7871 81.6378 57.4657 81.0736C57.1493 80.4991 56.6931 80.0126 56.1387 79.6593C55.5942 79.3098 54.9598 79.1241 54.3119 79.1241C53.6635 79.1206 53.0282 79.3064 52.485 79.659Z" fill="#333333"/>
<path d="M62.5333 89.4987V76.3063C62.5333 76.2587 62.5522 76.2132 62.586 76.1797C62.6198 76.1459 62.6658 76.127 62.7134 76.127H66.844C67.806 76.127 68.6262 76.1971 69.304 76.3374C69.9407 76.4555 70.5484 76.6953 71.0932 77.0439C71.5971 77.3777 71.9981 77.8437 72.252 78.3904C72.523 78.9569 72.6588 79.6478 72.6586 80.4628C72.6694 81.0849 72.53 81.7006 72.252 82.2581C71.9805 82.7869 71.5953 83.2497 71.1235 83.6138C70.6111 84.0086 70.0281 84.3033 69.4058 84.4829C68.7301 84.6873 68.0278 84.7902 67.3218 84.7884H66.2615C66.2377 84.7884 66.2143 84.793 66.1923 84.802C66.1706 84.8112 66.1507 84.8243 66.1338 84.8411C66.1172 84.8576 66.104 84.8776 66.095 84.8992C66.086 84.9211 66.0813 84.9445 66.0813 84.968V89.4991C66.0813 89.5465 66.0624 89.5922 66.0286 89.6258C65.9949 89.6594 65.9491 89.6782 65.9012 89.6782H62.7134C62.6655 89.6782 62.6198 89.6594 62.586 89.6258C62.5522 89.5922 62.5333 89.546 62.5333 89.4987ZM66.0813 79.1806V81.7348C66.0813 81.7824 66.1003 81.8279 66.1341 81.8615C66.1678 81.8951 66.2136 81.9139 66.2615 81.9139H67.0979C67.7487 81.9139 68.25 81.7866 68.6024 81.532C68.9481 81.2838 69.1209 80.921 69.1211 80.4435C69.1211 79.9788 68.9481 79.6222 68.6024 79.3739C68.2502 79.1254 67.7487 79.0013 67.0979 79.0013H66.2615C66.2136 79.0013 66.1678 79.0201 66.1341 79.0537C66.1003 79.0875 66.0813 79.133 66.0813 79.1806Z" fill="#333333"/>
</g>
<defs>
<clipPath id="clip0_139_36">
<rect width="74" height="89.6625" fill="white" transform="translate(0.5 0.86499)"/>
</clipPath>
</defs>
</svg>
