<svg width="111" height="163" viewBox="0 0 111 163" fill="none" xmlns="http://www.w3.org/2000/svg">
<path d="M5.37317 136.078H2.15411V134.177H10.9403V136.078H7.70931V144.255H5.37317V136.078Z" fill="#EDBF6D"/>
<path d="M23.2509 134.174V144.255H20.9148V140.12H16.338V144.255H14.0018V134.174H16.338V138.145H20.9148V134.174H23.2509Z" fill="#EDBF6D"/>
<path d="M33.6622 142.382V144.255H25.8544V134.174H33.4761V136.047H28.1786V138.235H32.858V140.046H28.1786V142.382H33.6622Z" fill="#EDBF6D"/>
<path d="M48.5667 139.011C49.1036 139.168 49.5737 139.493 49.915 139.937C50.2538 140.39 50.428 140.946 50.4089 141.509C50.4423 142.32 50.0534 143.091 49.3804 143.547C48.4718 144.077 47.426 144.324 46.3761 144.258H41.1598V134.176H46.0874C47.0801 134.114 48.0704 134.363 48.9151 134.885C49.2284 135.094 49.4834 135.38 49.6562 135.714C49.829 136.049 49.914 136.422 49.903 136.799C49.9102 137.259 49.7861 137.713 49.5427 138.106C49.3068 138.492 48.9691 138.805 48.5667 139.011ZM43.4864 135.935V138.312H45.8011C46.2568 138.343 46.7102 138.24 47.1063 138.016C47.2529 137.919 47.3717 137.785 47.4512 137.628C47.5307 137.471 47.5681 137.297 47.5597 137.121C47.5812 136.765 47.407 136.427 47.1063 136.236C46.7094 136.012 46.2557 135.909 45.8011 135.94L43.4864 135.935ZM46.2019 142.497C46.684 142.53 47.1636 142.428 47.5907 142.201C47.7455 142.101 47.8708 141.961 47.9538 141.796C48.0369 141.631 48.0746 141.447 48.0632 141.263C48.0632 140.428 47.4404 140.008 46.2019 140.008H43.4864V142.497H46.2019Z" fill="#EDBF6D"/>
<path d="M59.4409 144.255L57.4961 141.447H55.3461V144.255H53.0099V134.174H57.372C58.1714 134.155 58.9636 134.31 59.6962 134.627C60.3265 134.887 60.8617 135.335 61.2296 135.909C61.5975 136.482 61.7802 137.156 61.7532 137.837C61.7773 138.516 61.5905 139.187 61.2183 139.756C60.8462 140.325 60.307 140.765 59.6748 141.015L61.9393 144.255H59.4385H59.4409ZM59.3908 137.837C59.4218 137.34 59.2214 136.858 58.8467 136.529C58.3841 136.198 57.8206 136.037 57.2527 136.076H55.3461V139.581H57.2503C57.8182 139.622 58.3814 139.462 58.8443 139.128C59.0268 138.967 59.1705 138.766 59.2647 138.542C59.3589 138.318 59.4012 138.075 59.3884 137.832" fill="#EDBF6D"/>
<path d="M69.8807 144.112C68.8928 144.127 67.9168 143.893 67.0411 143.432C66.2274 143.003 65.5473 142.358 65.0772 141.571C64.6116 140.759 64.3667 139.839 64.3667 138.902C64.3667 137.966 64.6116 137.046 65.0772 136.233C65.5473 135.441 66.2274 134.792 67.0411 134.363C67.9168 133.902 68.8928 133.668 69.8807 133.683C70.8615 133.668 71.8327 133.902 72.6989 134.363C73.515 134.797 74.1975 135.443 74.6747 136.233C75.1471 137.043 75.3959 137.964 75.3959 138.902C75.3959 139.84 75.1471 140.761 74.6747 141.571C74.1953 142.358 73.5128 143.001 72.6989 143.432C71.8327 143.893 70.8615 144.127 69.8807 144.112ZM69.8807 142.127C70.4463 142.134 71.0023 141.993 71.4962 141.717C71.9711 141.449 72.36 141.053 72.6178 140.574C72.897 140.058 73.0377 139.481 73.0282 138.894C73.0377 138.312 72.897 137.739 72.6178 137.228C72.3596 136.746 71.9709 136.347 71.4962 136.076C70.4892 135.527 69.2722 135.527 68.2652 136.076C67.788 136.345 67.3966 136.746 67.1342 137.228C66.8548 137.738 66.7125 138.312 66.7213 138.894C66.7118 139.481 66.8526 140.058 67.1342 140.574C67.3966 141.053 67.788 141.447 68.2652 141.717C68.7568 141.993 69.3152 142.137 69.8807 142.127Z" fill="#EDBF6D"/>
<path d="M81.3706 140.294L80.0223 141.705V144.255H77.6981V134.174H80.0223V138.884L84.487 134.174H87.0809L82.9049 138.667L87.3171 144.253H84.6015L81.3706 140.294Z" fill="#EDBF6D"/>
<path d="M97.3585 142.382V144.255H89.5507V134.174H97.1747V136.047H91.8749V138.235H96.5543V140.046H91.8749V142.382H97.3585Z" fill="#EDBF6D"/>
<path d="M106.347 144.255L104.403 141.447H102.253V144.255H99.9165V134.174H104.279C105.078 134.155 105.87 134.31 106.603 134.627C107.233 134.887 107.768 135.335 108.136 135.909C108.504 136.482 108.687 137.156 108.66 137.837C108.684 138.516 108.497 139.187 108.125 139.756C107.753 140.325 107.214 140.765 106.581 141.015L108.846 144.255H106.345H106.347ZM106.3 137.837C106.331 137.34 106.13 136.858 105.756 136.529C105.293 136.198 104.729 136.037 104.162 136.076H102.257V139.581H104.162C104.73 139.622 105.293 139.462 105.756 139.128C105.938 138.967 106.082 138.766 106.176 138.542C106.27 138.318 106.313 138.075 106.3 137.832" fill="#EDBF6D"/>
<path d="M12.2885 157.739H6.33722L5.19898 160.486H2.15173L7.86442 147.67H10.7947L16.5241 160.486H13.4148L12.2909 157.739H12.2885ZM11.3484 155.489L9.32481 150.586L7.28456 155.489H11.3484Z" fill="#EDBF6D"/>
<path d="M26.0357 160.304C24.802 160.324 23.5827 160.032 22.4921 159.455C21.4628 158.914 20.6031 158.099 20.0081 157.1C19.4157 156.057 19.1042 154.878 19.1042 153.678C19.1042 152.479 19.4157 151.3 20.0081 150.256C20.6022 149.254 21.4613 148.433 22.4921 147.889C23.5065 147.379 24.6186 147.091 25.7534 147.046C26.8882 147.001 28.0195 147.2 29.071 147.629C29.9468 148.006 30.7223 148.584 31.3332 149.316L29.4242 151.07C29.0364 150.593 28.5455 150.209 27.9885 149.949C27.4314 149.688 26.8226 149.557 26.2075 149.565C25.463 149.553 24.7281 149.732 24.0742 150.087C23.4613 150.428 22.9581 150.936 22.6234 151.552C22.2673 152.201 22.0871 152.931 22.1008 153.671C22.0865 154.416 22.2678 155.15 22.6234 155.804C22.9599 156.415 23.4633 156.919 24.0742 157.257C24.7281 157.613 25.463 157.794 26.2075 157.78C27.4579 157.794 28.6463 157.229 29.4242 156.25L31.3332 158.016C30.7221 158.758 29.9412 159.342 29.0567 159.717C28.1022 160.121 27.0738 160.321 26.0357 160.307" fill="#EDBF6D"/>
<path d="M43.6797 157.739H37.7284L36.5902 160.486H33.5429L39.2556 147.67H42.1859L47.9153 160.486H44.8036L43.6821 157.739H43.6797ZM42.7371 155.489L40.7088 150.586L38.6686 155.489H42.7371Z" fill="#EDBF6D"/>
<path d="M50.4924 147.67H56.3125C57.5868 147.646 58.8515 147.918 60.0016 148.467C61.0322 148.963 61.8992 149.744 62.5001 150.717C63.083 151.744 63.3895 152.904 63.3895 154.085C63.3895 155.266 63.083 156.426 62.5001 157.453C61.8979 158.422 61.0309 159.197 60.0016 159.689C58.8517 160.241 57.5878 160.514 56.3125 160.486H50.4924V147.67ZM56.1693 158.052C57.2909 158.109 58.3909 157.725 59.2309 156.981C60.7653 155.348 60.7653 152.805 59.2309 151.173C58.3898 150.429 57.2909 150.043 56.1693 150.099H53.4633V158.052H56.1693Z" fill="#EDBF6D"/>
<path d="M76.116 158.107V160.488H66.1892V147.672H75.8822V150.054H69.1458V152.838H75.0971V155.141H69.1458V158.109H76.116V158.107Z" fill="#EDBF6D"/>
<path d="M90.4097 160.488L90.3954 152.798L86.6155 159.128H85.2816L81.528 152.969V160.491H78.7433V147.675H81.2011L86.0023 155.64L90.7247 147.675H93.1563L93.1944 160.491H90.4097V160.488Z" fill="#EDBF6D"/>
<path d="M103.637 155.95V160.488H100.668V155.912L95.6976 147.672H98.8499L102.277 153.361L105.703 147.672H108.607L103.637 155.952V155.95Z" fill="#EDBF6D"/>
<path d="M56.6012 35.0021C65.8291 35.0021 73.3098 27.5218 73.3098 18.2944C73.3098 9.06705 65.8291 1.58679 56.6012 1.58679C47.3734 1.58679 39.8927 9.06705 39.8927 18.2944C39.8927 27.5218 47.3734 35.0021 56.6012 35.0021Z" fill="#EDBF6D"/>
<path d="M91.011 96.4017V62.8075C91.011 50.9222 81.3419 41.2465 69.4488 41.2465H43.756C31.863 41.2465 22.1939 50.9222 22.1939 62.8075V68.2598L2.15649 62.4114V126.443H7.60192V69.6676L22.1963 73.9292V126.443H27.6417V75.516L44.0639 80.3073C52.7999 82.8509 58.8992 90.9876 58.8992 100.088V105.634C49.2683 109.654 44.0329 116.913 44.0329 126.441H49.4783C49.4783 118.803 53.8356 114.298 58.8992 111.637V126.441H64.3446V109.475C64.5475 109.413 64.7503 109.351 64.9507 109.296L85.5728 103.562V126.438H91.0182V102.045L103.41 98.5993V126.393H108.855V91.4362L91.0182 96.3993L91.011 96.4017ZM85.5656 97.9097L64.3375 103.813V100.086C64.3375 88.5824 56.6275 78.2982 45.5815 75.0769L27.6345 69.8418V62.8027C27.6345 53.9192 34.8601 46.6868 43.7537 46.6868H69.4465C78.3376 46.6868 85.5656 53.9215 85.5656 62.8027V97.9073V97.9097Z" fill="#EDBF6D"/>
</svg>
